<svg width="280" height="184" viewBox="0 0 280 184" fill="none" xmlns="http://www.w3.org/2000/svg">
<rect width="280" height="184" fill="white"/>
<path d="M234 142H22L45.625 130.744V134H104.603V114.909H78.8643L107.254 101.383L110.025 106.557V134H133.548V106.557L146.275 82.792L156.518 77.9131V134H180.21V108.091H193.335C199.983 108.091 205.793 106.855 210.765 104.384C215.764 101.912 219.642 98.3891 222.397 93.8154C225.182 89.2416 226.574 83.8291 226.574 77.5791C226.574 71.3861 225.224 65.9743 222.525 61.3438C220.065 57.1224 216.708 53.7626 212.453 51.2646L234 41V142ZM69.3184 114.909H78.8643L45.625 130.744V46.7275H69.3184V114.909ZM121.445 82.1816H122.128L139.173 46.7275H194.188C200.665 46.7275 206.332 48.0057 211.19 50.5625C211.62 50.7885 212.041 51.0225 212.453 51.2646L182.265 65.6475H180.21V66.626L156.518 77.9131V63.6719L146.275 82.792L107.254 101.383L77.9795 46.7275H104.4L121.445 82.1816ZM188.562 65.6475C191.346 65.6475 193.719 66.1309 195.679 67.0967C197.667 68.0342 199.188 69.3977 200.239 71.1875C201.319 72.9487 201.858 75.0794 201.858 77.5791C201.858 80.0507 201.319 82.1965 200.239 84.0146C199.188 85.8328 197.667 87.2391 195.679 88.2334C193.719 89.1991 191.346 89.6816 188.562 89.6816H180.21V66.626L182.265 65.6475H188.562Z" fill="url(#paint0_linear_7_2)"/>
<defs>
<linearGradient id="paint0_linear_7_2" x1="22" y1="41" x2="234" y2="142" gradientUnits="userSpaceOnUse">
<stop stop-color="#071B4F"/>
<stop offset="1" stop-color="#007BFF"/>
</linearGradient>
</defs>
</svg>
